<svg xmlns="http://www.w3.org/2000/svg" xmlns:svg="http://www.w3.org/2000/svg" xmlns:xlink="http://www.w3.org/1999/xlink" id="svg4729" width="112" height="80" version="1.1"><defs id="defs4731"><linearGradient id="linearGradient9678" x1="14.067" x2="14.067" y1="6.648" y2="80.118" gradientTransform="matrix(2.6263817,0,0,0.43555485,351.27065,412.22031)" gradientUnits="userSpaceOnUse" xlink:href="#linearGradient3924-4"/><linearGradient id="linearGradient3924-4"><stop style="stop-color:#fff;stop-opacity:1" id="stop3926-8" offset="0"/><stop id="stop3928-5" offset=".063" style="stop-color:#fff;stop-opacity:.23529412"/><stop style="stop-color:#fff;stop-opacity:.15686275" id="stop3930-6-4" offset=".951"/><stop style="stop-color:#fff;stop-opacity:.39215687" id="stop3932-25" offset="1"/></linearGradient><filter id="filter1523" width="1.115" height="1.588" x="-.057" y="-.294" style="color-interpolation-filters:sRGB"><feGaussianBlur id="feGaussianBlur1525" stdDeviation=".98"/></filter><linearGradient id="linearGradient1529" x1="14.448" x2="14.448" y1="6.648" y2="24.827" gradientTransform="matrix(2.6263817,0,0,0.43555485,57.05491,13.10443)" gradientUnits="userSpaceOnUse" xlink:href="#linearGradient3924-4"/><filter style="color-interpolation-filters:sRGB" id="filter4700" width="1.061" height="1.088" x="-.03" y="-.044"><feGaussianBlur id="feGaussianBlur4702" stdDeviation=".645"/></filter><filter style="color-interpolation-filters:sRGB" id="filter4733" width="1.142" height="1.206" x="-.071" y="-.103"><feGaussianBlur id="feGaussianBlur4735" stdDeviation="1.505"/></filter><filter style="color-interpolation-filters:sRGB" id="filter4733-6" width="1.142" height="1.206" x="-.071" y="-.103"><feGaussianBlur id="feGaussianBlur4735-2" stdDeviation="1.505"/></filter><filter style="color-interpolation-filters:sRGB" id="filter4700-6" width="1.061" height="1.088" x="-.03" y="-.044"><feGaussianBlur id="feGaussianBlur4702-1" stdDeviation=".645"/></filter><linearGradient id="linearGradient4798" x1="14.067" x2="14.067" y1="6.648" y2="80.118" gradientTransform="matrix(2.6263817,0,0,0.43555485,351.27065,412.22031)" gradientUnits="userSpaceOnUse" xlink:href="#linearGradient3924-4"/><filter style="color-interpolation-filters:sRGB" id="filter4818" width="1.053" height="1.044" x="-.026" y="-.022"><feGaussianBlur id="feGaussianBlur4820" stdDeviation=".405"/></filter></defs><metadata id="metadata4734"/><path id="rect857" d="M 80,80 V 76.8239 C 80,75.81345 79.12517,75 78.03846,75 H 30.96154 C 29.87483,75 29,75.81345 29,76.8239 V 80" style="color:#000;display:inline;overflow:visible;visibility:visible;opacity:.95;fill:#fafafa;fill-opacity:1;fill-rule:nonzero;stroke:none;stroke-width:.94573361;stroke-linecap:butt;stroke-linejoin:miter;stroke-miterlimit:4;stroke-dasharray:none;stroke-dashoffset:0;stroke-opacity:1;marker:none;enable-background:accumulate"/><path id="rect857-2" d="m 80.5,79.9834 v -3.48276 c 0,-1.10801 -0.89199,-2 -2,-2 h -48 c -1.10801,0 -2,0.89199 -2,2 v 3.48276" style="color:#000;display:inline;overflow:visible;visibility:visible;opacity:.15;vector-effect:none;fill:none;fill-opacity:1;fill-rule:nonzero;stroke:#000;stroke-width:.9999218;stroke-linecap:butt;stroke-linejoin:miter;stroke-miterlimit:4;stroke-dasharray:none;stroke-dashoffset:0;stroke-opacity:1;marker:none;enable-background:accumulate"/><path id="path1027" d="m 72.50003,15.49997 c -1.108,0 -2,0.892 -2,2 v 7 c 0,1.108 0.892,2 2,2 h 33 c 1.108,0 2,-0.892 2,-2 v -7 c 0,-1.108 -0.892,-2 -2,-2 z" style="color:#000;display:inline;overflow:visible;visibility:visible;opacity:.15;fill:#000;fill-opacity:1;fill-rule:nonzero;stroke:none;stroke-width:.9999218;stroke-linecap:butt;stroke-linejoin:miter;stroke-miterlimit:4;stroke-dasharray:none;stroke-dashoffset:0;stroke-opacity:1;marker:none;filter:url(#filter4818);enable-background:accumulate"/><path style="color:#000;display:inline;overflow:visible;visibility:visible;opacity:.15;vector-effect:none;fill:none;fill-opacity:1;fill-rule:nonzero;stroke:#000;stroke-width:.9999218;stroke-linecap:butt;stroke-linejoin:miter;stroke-miterlimit:4;stroke-dasharray:none;stroke-dashoffset:0;stroke-opacity:1;marker:none;enable-background:accumulate" id="rect845" d="m 72.5,14.50004 c -1.108,0 -2,0.892 -2,2 v 7 c 0,1.108 0.892,2 2,2 h 33 c 1.108,0 2,-0.892 2,-2 v -7 c 0,-1.108 -0.892,-2 -2,-2 z"/><path id="rect845-6" d="m 72.49907,15.01299 c -0.83195,0 -1.48632,0.65437 -1.48632,1.48632 v 7 c 0,0.83196 0.65437,1.48633 1.48632,1.48633 h 33 c 0.83196,0 1.48633,-0.65437 1.48633,-1.48633 v -7 c 0,-0.83195 -0.65437,-1.48632 -1.48633,-1.48632 z" style="color:#000;display:inline;overflow:visible;visibility:visible;opacity:.95;fill:#fafafa;fill-opacity:1;fill-rule:nonzero;stroke:none;stroke-width:.9999218;stroke-linecap:butt;stroke-linejoin:miter;stroke-miterlimit:4;stroke-dasharray:none;stroke-dashoffset:0;stroke-opacity:1;marker:none;enable-background:accumulate"/><path style="opacity:1;fill:none;stroke:url(#linearGradient1529);stroke-width:.99999988;stroke-linecap:round;stroke-linejoin:round;stroke-miterlimit:4;stroke-dasharray:none;stroke-dashoffset:0;stroke-opacity:1" id="rect1527" d="m 72.52489,15.49999 h 32.93803 c 0.554,0 1.03707,0.446 1.03707,1 V 23.5 c 0,0.554 -0.446,1 -1,1 h -33 c -0.554,0 -1,-0.446 -1,-1 v -7.00001 c 0,-0.554 0.4709,-1 1.0249,-1 z"/><path style="opacity:.1;vector-effect:none;fill:#000;fill-opacity:1;stroke:none;stroke-width:1;stroke-linecap:round;stroke-linejoin:round;stroke-miterlimit:4;stroke-dasharray:none;stroke-dashoffset:0;stroke-opacity:1;marker:none;paint-order:normal;filter:url(#filter1523)" id="rect1343" d="m 35.5,71.001 c -0.83101,0 -1.5,0.66899 -1.5,1.5 v 5 c 0,0.83101 0.66899,1.5 1.5,1.5 h 5 c 0.83101,0 1.5,-0.66899 1.5,-1.5 v -5 c 0,-0.83101 -0.66899,-1.5 -1.5,-1.5 z m 11,0 c -0.83101,0 -1.5,0.66899 -1.5,1.5 v 5 c 0,0.83101 0.66899,1.5 1.5,1.5 h 5 c 0.83101,0 1.5,-0.66899 1.5,-1.5 v -5 c 0,-0.83101 -0.66899,-1.5 -1.5,-1.5 z m 11,0 c -0.83101,0 -1.5,0.66899 -1.5,1.5 v 5 c 0,0.83101 0.66899,1.5 1.5,1.5 h 5 c 0.83101,0 1.5,-0.66899 1.5,-1.5 v -5 c 0,-0.83101 -0.66899,-1.5 -1.5,-1.5 z m 11,0 c -0.83101,0 -1.5,0.66899 -1.5,1.5 v 5 c 0,0.83101 0.66899,1.5 1.5,1.5 h 5 c 0.83101,0 1.5,-0.66899 1.5,-1.5 v -5 c 0,-0.83101 -0.66899,-1.5 -1.5,-1.5 z"/><rect id="rect863" width="7" height="7" x="34.5" y="70.5" rx="1" ry="1" style="color:#000;display:inline;overflow:visible;visibility:visible;opacity:.15;vector-effect:none;fill:none;fill-opacity:1;fill-rule:nonzero;stroke:#000;stroke-width:.9999218;stroke-linecap:butt;stroke-linejoin:miter;stroke-miterlimit:4;stroke-dasharray:none;stroke-dashoffset:0;stroke-opacity:1;marker:none;enable-background:accumulate"/><rect style="color:#000;display:inline;overflow:visible;visibility:visible;opacity:.15;vector-effect:none;fill:none;fill-opacity:1;fill-rule:nonzero;stroke:#000;stroke-width:.9999218;stroke-linecap:butt;stroke-linejoin:miter;stroke-miterlimit:4;stroke-dasharray:none;stroke-dashoffset:0;stroke-opacity:1;marker:none;enable-background:accumulate" id="rect869" width="7" height="7" x="45.5" y="70.5" rx="1" ry="1"/><rect id="rect875" width="7" height="7" x="67.5" y="70.5" rx="1" ry="1" style="color:#000;display:inline;overflow:visible;visibility:visible;opacity:.15;vector-effect:none;fill:none;fill-opacity:1;fill-rule:nonzero;stroke:#000;stroke-width:.9999218;stroke-linecap:butt;stroke-linejoin:miter;stroke-miterlimit:4;stroke-dasharray:none;stroke-dashoffset:0;stroke-opacity:1;marker:none;enable-background:accumulate"/><rect style="color:#000;display:inline;overflow:visible;visibility:visible;opacity:.15;vector-effect:none;fill:none;fill-opacity:1;fill-rule:nonzero;stroke:#000;stroke-width:.9999218;stroke-linecap:butt;stroke-linejoin:miter;stroke-miterlimit:4;stroke-dasharray:none;stroke-dashoffset:0;stroke-opacity:1;marker:none;enable-background:accumulate" id="rect881" width="7" height="7" x="56.5" y="70.5" rx="1" ry="1"/><rect id="rect863-1" width="6" height="6" x="35" y="71" rx=".857" ry=".857" style="color:#000;display:inline;overflow:visible;visibility:visible;opacity:1;vector-effect:none;fill:#fafafa;fill-opacity:1;fill-rule:nonzero;stroke:none;stroke-width:.85706621;stroke-linecap:butt;stroke-linejoin:miter;stroke-miterlimit:4;stroke-dasharray:none;stroke-dashoffset:0;stroke-opacity:1;marker:none;enable-background:accumulate"/><rect id="rect863-1-8" width="6" height="6" x="46" y="71" rx=".857" ry=".857" style="color:#000;display:inline;overflow:visible;visibility:visible;opacity:1;vector-effect:none;fill:#fafafa;fill-opacity:1;fill-rule:nonzero;stroke:none;stroke-width:.85706621;stroke-linecap:butt;stroke-linejoin:miter;stroke-miterlimit:4;stroke-dasharray:none;stroke-dashoffset:0;stroke-opacity:1;marker:none;enable-background:accumulate"/><rect id="rect863-1-4" width="6" height="6" x="57" y="71" rx=".857" ry=".857" style="color:#000;display:inline;overflow:visible;visibility:visible;opacity:1;vector-effect:none;fill:#fafafa;fill-opacity:1;fill-rule:nonzero;stroke:none;stroke-width:.85706621;stroke-linecap:butt;stroke-linejoin:miter;stroke-miterlimit:4;stroke-dasharray:none;stroke-dashoffset:0;stroke-opacity:1;marker:none;enable-background:accumulate"/><rect id="rect863-1-8-5" width="6" height="6" x="68" y="71" rx=".857" ry=".857" style="color:#000;display:inline;overflow:visible;visibility:visible;opacity:1;vector-effect:none;fill:#fafafa;fill-opacity:1;fill-rule:nonzero;stroke:none;stroke-width:.85706621;stroke-linecap:butt;stroke-linejoin:miter;stroke-miterlimit:4;stroke-dasharray:none;stroke-dashoffset:0;stroke-opacity:1;marker:none;enable-background:accumulate"/><g style="color:#bebebe;fill:#abacae;stroke-width:2.41666675" id="g5339" transform="matrix(0.4137931,0,0,0.4137931,-27.03689,89.90069)"><path style="overflow:visible;isolation:auto;mix-blend-mode:normal;fill:#abacae;stroke-width:2.41666675;marker:none" id="path5337" d="m 301,-210.01 a 1,1 0 0 0 -1,1 v 0.01 c -1.764,0.456 -2.998,2.168 -3,3.99 0,0 0,5 -1.66,5.622 -0.016,0.01 -0.023,0.03 -0.04,0.043 a 0.726,0.726 0 0 0 -0.161,0.175 c -0.018,0.027 -0.039,0.048 -0.053,0.077 a 0.738,0.738 0 0 0 -0.086,0.334 c 0,0.415 0.335,0.75 0.75,0.75 h 10.5 c 0.416,0 0.75,-0.335 0.75,-0.75 a 0.738,0.738 0 0 0 -0.086,-0.334 c -0.014,-0.03 -0.035,-0.05 -0.052,-0.077 a 0.725,0.725 0 0 0 -0.162,-0.175 c -0.016,-0.012 -0.023,-0.033 -0.04,-0.043 -1.66,-0.622 -1.66,-5.622 -1.66,-5.622 -0.002,-1.822 -1.235,-3.534 -3,-3.99 v -0.01 a 1,1 0 0 0 -1,-1 z m -1.933,13 a 2,2 0 0 0 1.933,1.5 2,2 0 0 0 1.936,-1.5 z" overflow="visible"/></g></svg>