<svg xmlns="http://www.w3.org/2000/svg" xmlns:svg="http://www.w3.org/2000/svg" xmlns:xlink="http://www.w3.org/1999/xlink" id="svg4729" width="112" height="80" version="1.1"><defs id="defs4731"><linearGradient id="linearGradient5063"><stop id="stop5055" offset="0" style="stop-color:#fff;stop-opacity:1"/><stop style="stop-color:#fff;stop-opacity:.23529412" id="stop5057" offset=".195"/><stop id="stop5059" offset=".951" style="stop-color:#fff;stop-opacity:.15686275"/><stop id="stop5061" offset="1" style="stop-color:#fff;stop-opacity:.39215687"/></linearGradient><linearGradient id="linearGradient3924-4"><stop style="stop-color:#fff;stop-opacity:1" id="stop3926-8" offset="0"/><stop id="stop3928-5" offset=".063" style="stop-color:#fff;stop-opacity:.23529412"/><stop style="stop-color:#fff;stop-opacity:.15686275" id="stop3930-6-4" offset=".951"/><stop style="stop-color:#fff;stop-opacity:.39215687" id="stop3932-25" offset="1"/></linearGradient><filter id="filter1523" width="1.115" height="1.588" x="-.057" y="-.294" style="color-interpolation-filters:sRGB"><feGaussianBlur id="feGaussianBlur1525" stdDeviation=".98"/></filter><linearGradient id="linearGradient1529" x1="14.448" x2="14.448" y1="6.648" y2="93.893" gradientTransform="matrix(2.6263817,0,0,0.43555485,57.05491,13.104455)" gradientUnits="userSpaceOnUse" xlink:href="#linearGradient3924-4"/><filter style="color-interpolation-filters:sRGB" id="filter4733-6" width="1.142" height="1.206" x="-.071" y="-.103"><feGaussianBlur id="feGaussianBlur4735-2" stdDeviation="1.505"/></filter><filter style="color-interpolation-filters:sRGB" id="filter4700-6" width="1.061" height="1.088" x="-.03" y="-.044"><feGaussianBlur id="feGaussianBlur4702-1" stdDeviation=".645"/></filter><linearGradient id="linearGradient4798" x1="14.067" x2="14.067" y1="6.648" y2="80.118" gradientTransform="matrix(2.6263817,0,0,0.43555485,351.27065,412.22031)" gradientUnits="userSpaceOnUse" xlink:href="#linearGradient3924-4"/><filter style="color-interpolation-filters:sRGB" id="filter4818" width="1.053" height="1.044" x="-.026" y="-.022"><feGaussianBlur id="feGaussianBlur4820" stdDeviation=".405"/></filter><linearGradient id="linearGradient5053" x1="438.652" x2="438.652" y1="466.579" y2="473.279" gradientTransform="matrix(0.98039219,0,0,0.9,-352.08409,-344.00433)" gradientUnits="userSpaceOnUse" xlink:href="#linearGradient5063"/><filter style="color-interpolation-filters:sRGB" id="filter4733-3" width="1.142" height="1.206" x="-.071" y="-.103"><feGaussianBlur id="feGaussianBlur4735-6" stdDeviation="1.505"/></filter><filter style="color-interpolation-filters:sRGB" id="filter4700-7" width="1.061" height="1.088" x="-.03" y="-.044"><feGaussianBlur id="feGaussianBlur4702-5" stdDeviation=".645"/></filter><linearGradient id="linearGradient923" x1="14.067" x2="14.067" y1="6.648" y2="80.118" gradientTransform="matrix(2.6263817,0,0,0.43555485,351.27065,412.22031)" gradientUnits="userSpaceOnUse" xlink:href="#linearGradient3924-4"/><filter id="filter4818-3" width="1.053" height="1.044" x="-.026" y="-.022" style="color-interpolation-filters:sRGB"><feGaussianBlur id="feGaussianBlur4820-6" stdDeviation=".405"/></filter><linearGradient id="linearGradient1529-7" x1="14.448" x2="14.448" y1="6.648" y2="93.893" gradientTransform="matrix(2.6263817,0,0,0.43555485,57.05491,13.10443)" gradientUnits="userSpaceOnUse" xlink:href="#linearGradient3924-4"/><filter style="color-interpolation-filters:sRGB" id="filter1523-2" width="1.115" height="1.588" x="-.057" y="-.294"><feGaussianBlur id="feGaussianBlur1525-9" stdDeviation=".98"/></filter></defs><metadata id="metadata4734"/><path id="rect857" d="M 80,80 V 76.56912 C 80,75.55867 79.37995,75 78.29324,75 H 30.67845 C 29.59174,75 29,75.61529 29,76.62574 V 80" style="color:#000;display:inline;overflow:visible;visibility:visible;opacity:1;vector-effect:none;fill:#4d4d4d;fill-opacity:1;fill-rule:nonzero;stroke:none;stroke-width:.97582185;stroke-linecap:butt;stroke-linejoin:miter;stroke-miterlimit:4;stroke-dasharray:none;stroke-dashoffset:0;stroke-opacity:.50216447;marker:none;enable-background:accumulate"/><path id="rect857-2" d="m 80.5,79.9834 v -3.48276 c 0,-1.10801 -0.89199,-2 -2,-2 h -48 c -1.10801,0 -2,0.89199 -2,2 v 3.48276" style="color:#000;display:inline;overflow:visible;visibility:visible;opacity:.74500002;vector-effect:none;fill:none;fill-opacity:1;fill-rule:nonzero;stroke:#000;stroke-width:.9999218;stroke-linecap:butt;stroke-linejoin:miter;stroke-miterlimit:4;stroke-dasharray:none;stroke-dashoffset:0;stroke-opacity:1;marker:none;enable-background:accumulate"/><path style="opacity:.1;vector-effect:none;fill:#000;fill-opacity:1;stroke:none;stroke-width:1;stroke-linecap:round;stroke-linejoin:round;stroke-miterlimit:4;stroke-dasharray:none;stroke-dashoffset:0;stroke-opacity:1;marker:none;paint-order:normal;filter:url(#filter1523)" id="rect1343" d="m 35.5,71.001 c -0.83101,0 -1.5,0.66899 -1.5,1.5 v 5 c 0,0.83101 0.66899,1.5 1.5,1.5 h 5 c 0.83101,0 1.5,-0.66899 1.5,-1.5 v -5 c 0,-0.83101 -0.66899,-1.5 -1.5,-1.5 z m 11,0 c -0.83101,0 -1.5,0.66899 -1.5,1.5 v 5 c 0,0.83101 0.66899,1.5 1.5,1.5 h 5 c 0.83101,0 1.5,-0.66899 1.5,-1.5 v -5 c 0,-0.83101 -0.66899,-1.5 -1.5,-1.5 z m 11,0 c -0.83101,0 -1.5,0.66899 -1.5,1.5 v 5 c 0,0.83101 0.66899,1.5 1.5,1.5 h 5 c 0.83101,0 1.5,-0.66899 1.5,-1.5 v -5 c 0,-0.83101 -0.66899,-1.5 -1.5,-1.5 z m 11,0 c -0.83101,0 -1.5,0.66899 -1.5,1.5 v 5 c 0,0.83101 0.66899,1.5 1.5,1.5 h 5 c 0.83101,0 1.5,-0.66899 1.5,-1.5 v -5 c 0,-0.83101 -0.66899,-1.5 -1.5,-1.5 z"/><path id="rect857-0" d="M 79.50002,80 V 76.91221 C 79.50002,76.0028 78.89212,75.5 77.82672,75.5 H 31.14556 c -1.06541,0 -1.64555,0.55376 -1.64555,1.46317 V 80" style="color:#000;display:inline;overflow:visible;visibility:visible;opacity:.15;vector-effect:none;fill:none;fill-opacity:1;fill-rule:nonzero;stroke:url(#linearGradient5053);stroke-width:1;stroke-linecap:butt;stroke-linejoin:miter;stroke-miterlimit:4;stroke-dasharray:none;stroke-dashoffset:0;stroke-opacity:1;marker:none;enable-background:accumulate"/><rect id="rect863" width="7" height="7" x="34.5" y="70.5" rx="1" ry="1" style="color:#000;display:inline;overflow:visible;visibility:visible;opacity:.15;vector-effect:none;fill:none;fill-opacity:1;fill-rule:nonzero;stroke:#000;stroke-width:.9999218;stroke-linecap:butt;stroke-linejoin:miter;stroke-miterlimit:4;stroke-dasharray:none;stroke-dashoffset:0;stroke-opacity:1;marker:none;enable-background:accumulate"/><rect style="color:#000;display:inline;overflow:visible;visibility:visible;opacity:.15;vector-effect:none;fill:none;fill-opacity:1;fill-rule:nonzero;stroke:#000;stroke-width:.9999218;stroke-linecap:butt;stroke-linejoin:miter;stroke-miterlimit:4;stroke-dasharray:none;stroke-dashoffset:0;stroke-opacity:1;marker:none;enable-background:accumulate" id="rect869" width="7" height="7" x="45.5" y="70.5" rx="1" ry="1"/><rect id="rect875" width="7" height="7" x="67.5" y="70.5" rx="1" ry="1" style="color:#000;display:inline;overflow:visible;visibility:visible;opacity:.15;vector-effect:none;fill:none;fill-opacity:1;fill-rule:nonzero;stroke:#000;stroke-width:.9999218;stroke-linecap:butt;stroke-linejoin:miter;stroke-miterlimit:4;stroke-dasharray:none;stroke-dashoffset:0;stroke-opacity:1;marker:none;enable-background:accumulate"/><rect style="color:#000;display:inline;overflow:visible;visibility:visible;opacity:.15;vector-effect:none;fill:none;fill-opacity:1;fill-rule:nonzero;stroke:#000;stroke-width:.9999218;stroke-linecap:butt;stroke-linejoin:miter;stroke-miterlimit:4;stroke-dasharray:none;stroke-dashoffset:0;stroke-opacity:1;marker:none;enable-background:accumulate" id="rect881" width="7" height="7" x="56.5" y="70.5" rx="1" ry="1"/><rect id="rect863-1" width="6" height="6" x="35" y="71" rx=".857" ry=".857" style="color:#000;display:inline;overflow:visible;visibility:visible;opacity:1;vector-effect:none;fill:#fafafa;fill-opacity:1;fill-rule:nonzero;stroke:none;stroke-width:.85706621;stroke-linecap:butt;stroke-linejoin:miter;stroke-miterlimit:4;stroke-dasharray:none;stroke-dashoffset:0;stroke-opacity:1;marker:none;enable-background:accumulate"/><rect id="rect863-1-8" width="6" height="6" x="46" y="71" rx=".857" ry=".857" style="color:#000;display:inline;overflow:visible;visibility:visible;opacity:1;vector-effect:none;fill:#fafafa;fill-opacity:1;fill-rule:nonzero;stroke:none;stroke-width:.85706621;stroke-linecap:butt;stroke-linejoin:miter;stroke-miterlimit:4;stroke-dasharray:none;stroke-dashoffset:0;stroke-opacity:1;marker:none;enable-background:accumulate"/><rect id="rect863-1-4" width="6" height="6" x="57" y="71" rx=".857" ry=".857" style="color:#000;display:inline;overflow:visible;visibility:visible;opacity:1;vector-effect:none;fill:#fafafa;fill-opacity:1;fill-rule:nonzero;stroke:none;stroke-width:.85706621;stroke-linecap:butt;stroke-linejoin:miter;stroke-miterlimit:4;stroke-dasharray:none;stroke-dashoffset:0;stroke-opacity:1;marker:none;enable-background:accumulate"/><rect id="rect863-1-8-5" width="6" height="6" x="68" y="71" rx=".857" ry=".857" style="color:#000;display:inline;overflow:visible;visibility:visible;opacity:1;vector-effect:none;fill:#fafafa;fill-opacity:1;fill-rule:nonzero;stroke:none;stroke-width:.85706621;stroke-linecap:butt;stroke-linejoin:miter;stroke-miterlimit:4;stroke-dasharray:none;stroke-dashoffset:0;stroke-opacity:1;marker:none;enable-background:accumulate"/><g style="color:#bebebe;fill:#abacae;stroke-width:2.41666675" id="g5339" transform="matrix(0.4137931,0,0,0.4137931,-27.03689,89.90069)"><path style="overflow:visible;isolation:auto;mix-blend-mode:normal;fill:#abacae;stroke-width:2.41666675;marker:none" id="path5337" d="m 301,-210.01 a 1,1 0 0 0 -1,1 v 0.01 c -1.764,0.456 -2.998,2.168 -3,3.99 0,0 0,5 -1.66,5.622 -0.016,0.01 -0.023,0.03 -0.04,0.043 a 0.726,0.726 0 0 0 -0.161,0.175 c -0.018,0.027 -0.039,0.048 -0.053,0.077 a 0.738,0.738 0 0 0 -0.086,0.334 c 0,0.415 0.335,0.75 0.75,0.75 h 10.5 c 0.416,0 0.75,-0.335 0.75,-0.75 a 0.738,0.738 0 0 0 -0.086,-0.334 c -0.014,-0.03 -0.035,-0.05 -0.052,-0.077 a 0.725,0.725 0 0 0 -0.162,-0.175 c -0.016,-0.012 -0.023,-0.033 -0.04,-0.043 -1.66,-0.622 -1.66,-5.622 -1.66,-5.622 -0.002,-1.822 -1.235,-3.534 -3,-3.99 v -0.01 a 1,1 0 0 0 -1,-1 z m -1.933,13 a 2,2 0 0 0 1.933,1.5 2,2 0 0 0 1.936,-1.5 z" overflow="visible"/></g><g style="color:#bebebe;opacity:1;vector-effect:none;fill:#d4d5d6;fill-opacity:1;stroke-width:.5;stroke-linecap:butt;stroke-linejoin:miter;stroke-miterlimit:4;stroke-dasharray:none;stroke-dashoffset:0;stroke-opacity:1;marker:none" id="g8" transform="matrix(2,0,0,2,-505,605.75)"><path style="overflow:visible;vector-effect:none;fill:#d4d5d6;fill-opacity:1;stroke-width:.5;stroke-linecap:butt;stroke-linejoin:miter;stroke-miterlimit:4;stroke-dasharray:none;stroke-dashoffset:0;stroke-opacity:1;marker:none" id="path2" d="m 288,-283 c 0,-3.225 -1.204,-5.982 -2.946,-7.25 l -1.155,1.04 c 1.5,1.062 2.542,3.453 2.542,6.21 0,2.757 -1.042,5.148 -2.542,6.21 l 1.155,1.04 c 1.742,-1.268 2.946,-4.025 2.946,-7.25 z" overflow="visible"/><path style="overflow:visible;vector-effect:none;fill:#d4d5d6;fill-opacity:1;stroke-width:.5;stroke-linecap:butt;stroke-linejoin:miter;stroke-miterlimit:4;stroke-dasharray:none;stroke-dashoffset:0;stroke-opacity:1;marker:none" id="path4" d="m 284.939,-283 c 0,-2.18 -0.829,-4.085 -2.08,-5.285 l -1.068,0.953 c 0.965,1.026 1.588,2.582 1.588,4.332 0,1.75 -0.623,3.306 -1.588,4.332 l 1.068,0.953 c 1.251,-1.2 2.08,-3.104 2.08,-5.285 z" overflow="visible"/><path style="overflow:visible;vector-effect:none;fill:#d4d5d6;fill-opacity:1;stroke-width:.5;stroke-linecap:butt;stroke-linejoin:miter;stroke-miterlimit:4;stroke-dasharray:none;stroke-dashoffset:0;stroke-opacity:1;marker:none" id="path6" d="m 281.993,-283 c 0,-1.326 -0.44,-2.542 -1.155,-3.495 l -1.098,0.982 a 4.9,4.9 0 0 1 0,5.026 l 1.098,0.982 A 5.813,5.813 0 0 0 281.993,-283 Z M 273,-285 v 4 h 1.652 l 3.348,3.37 v -10.74 l -3.348,3.37 z" overflow="visible"/></g></svg>